<svg id="visual" viewBox="0 0 900 600" width="900" height="600" xmlns="http://www.w3.org/2000/svg" xmlns:xlink="http://www.w3.org/1999/xlink" version="1.1"><g transform="translate(476.3175949962143 319.7823664407324)"><path d="M151.4 -192.4C183.2 -153.7 187.1 -93.7 195.7 -35.9C204.2 21.9 217.3 77.4 197.3 115.8C177.4 154.1 124.4 175.3 73.3 188.2C22.1 201.1 -27.2 205.8 -76.7 194.7C-126.1 183.7 -175.6 156.8 -212.1 113.1C-248.6 69.3 -272 8.6 -254.6 -37C-237.1 -82.6 -178.8 -113.1 -129.6 -148.8C-80.4 -184.4 -40.2 -225.2 9.8 -236.9C59.8 -248.6 119.6 -231.2 151.4 -192.4" fill="#41228e"></path></g></svg>