<svg id="visual" viewBox="0 0 900 600" width="900" height="600" xmlns="http://www.w3.org/2000/svg" xmlns:xlink="http://www.w3.org/1999/xlink" version="1.1"><g transform="translate(429.9019862576224 285.17129635293975)"><path d="M125.8 -144.6C171.3 -111.8 222 -79.9 240.2 -33.9C258.4 12.1 243.9 72.3 215.6 127.3C187.2 182.3 144.9 232.1 95.8 239.9C46.6 247.8 -9.3 213.6 -64.6 188.6C-119.8 163.7 -174.2 147.8 -196 112.2C-217.7 76.5 -206.9 21 -189 -25.2C-171.1 -71.3 -146.3 -108 -113.7 -143.1C-81 -178.2 -40.5 -211.6 -0.2 -211.4C40.2 -211.2 80.4 -177.4 125.8 -144.6" fill="#41228e"></path></g></svg>