<svg id="visual" viewBox="0 0 900 600" width="900" height="600" xmlns="http://www.w3.org/2000/svg" xmlns:xlink="http://www.w3.org/1999/xlink" version="1.1"><g transform="translate(438.1771181130055 288.24898454420907)"><path d="M129.6 -150.8C178.8 -113.1 237.1 -82.6 246.2 -41.8C255.3 -1.1 215.1 50 181.2 100.8C147.3 151.6 119.6 202.2 73.7 231.4C27.8 260.6 -36.4 268.4 -93.3 250.3C-150.2 232.2 -199.8 188.1 -216.7 136.1C-233.6 84.1 -217.7 24.3 -198.9 -26.8C-180 -77.9 -158.1 -120.1 -124.5 -160.5C-90.8 -200.9 -45.4 -239.5 -2.6 -236.3C40.2 -233.2 80.4 -188.4 129.6 -150.8" fill="#41228e"></path></g></svg>